<svg width="500" height="500" viewBox="0 0 500 500" fill="none" xmlns="http://www.w3.org/2000/svg">
<path d="M443.407 172.412L319.433 154.394L264.013 42.041C262.499 38.9648 260.009 36.4745 256.933 34.9609C249.218 31.1523 239.843 34.3261 235.986 42.041L180.566 154.394L56.591 172.412C53.1731 172.9 50.0481 174.512 47.6555 176.953C44.763 179.926 43.1691 183.926 43.224 188.073C43.279 192.221 44.9782 196.177 47.9485 199.072L137.646 286.523L116.454 410.01C115.957 412.882 116.275 415.837 117.372 418.538C118.469 421.239 120.3 423.579 122.659 425.292C125.018 427.005 127.809 428.023 130.717 428.23C133.625 428.438 136.533 427.826 139.111 426.465L249.999 368.164L360.888 426.465C363.915 428.076 367.431 428.613 370.8 428.027C379.296 426.562 385.009 418.506 383.544 410.01L362.353 286.523L452.05 199.072C454.491 196.68 456.103 193.555 456.591 190.137C457.909 181.592 451.952 173.682 443.407 172.412V172.412Z" fill="#FF0000"/>
</svg>
